<svg width="18" height="18" viewBox="0 0 18 18" fill="none" xmlns="http://www.w3.org/2000/svg">
<path d="M15.3291 10.2973H11.9777C11.5336 10.2973 11.1076 10.4732 10.7928 10.7865C10.4781 11.0998 10.3002 11.525 10.2982 11.9691V15.3204C10.2982 15.7659 10.4751 16.1931 10.7901 16.5081C11.1051 16.823 11.5323 17 11.9777 17H15.3291C15.773 16.9977 16.198 16.8198 16.5111 16.505C16.8242 16.1903 17 15.7644 17 15.3204V11.9691C17 11.5259 16.824 11.1009 16.5106 10.7876C16.1972 10.4742 15.7722 10.2982 15.3291 10.2982M6.02227 10.2973H2.67092C2.22689 10.2998 1.80191 10.478 1.48882 10.7928C1.17573 11.1077 0.999993 11.5337 1 11.9777V15.3291C1 15.7722 1.17604 16.1972 1.4894 16.5106C1.80276 16.824 2.22776 17 2.67092 17H6.02227C6.46623 17 6.89212 16.8242 7.20686 16.5111C7.52159 16.198 7.69955 15.773 7.70184 15.3291V11.9777C7.70184 11.5323 7.52488 11.1051 7.2099 10.7901C6.89492 10.4751 6.46772 10.2982 6.02227 10.2982M6.02227 1H2.67092C2.45149 1 2.23421 1.04322 2.03149 1.12719C1.82876 1.21116 1.64456 1.33424 1.4894 1.4894C1.33424 1.64456 1.21116 1.82876 1.12719 2.03149C1.04322 2.23421 1 2.45149 1 2.67092V6.02227C0.999994 6.46623 1.17576 6.89212 1.48887 7.20686C1.80198 7.52159 2.22697 7.69955 2.67092 7.70184H6.02227C6.46772 7.70184 6.89492 7.52488 7.2099 7.2099C7.52488 6.89492 7.70184 6.46772 7.70184 6.02227V2.67092C7.69955 2.22697 7.52159 1.80198 7.20686 1.48887C6.89212 1.17576 6.46623 0.999994 6.02227 1ZM15.3291 1H11.9777C11.5338 0.999994 11.1079 1.17576 10.7931 1.48887C10.4784 1.80198 10.3004 2.22697 10.2982 2.67092V6.02227C10.2984 6.46765 10.4754 6.89472 10.7903 7.20965C11.1053 7.52458 11.5324 7.70161 11.9777 7.70184H15.3291C15.773 7.69955 16.198 7.52159 16.5111 7.20686C16.8242 6.89212 17 6.46623 17 6.02227V2.67092C17 2.22776 16.824 1.80276 16.5106 1.4894C16.1972 1.17604 15.7722 1 15.3291 1Z" stroke="#555555" stroke-linecap="round" stroke-linejoin="round"/>
</svg>
